<?xml version="1.0" encoding="utf-8"?>
<!-- Generator: Adobe Illustrator 19.2.1, SVG Export Plug-In . SVG Version: 6.00 Build 0)  -->
<svg version="1.1" id="layer" xmlns="http://www.w3.org/2000/svg" xmlns:xlink="http://www.w3.org/1999/xlink" x="0px" y="0px"
	 viewBox="0 0 652 652" style="enable-background:new 0 0 652 652;" xml:space="preserve">
<style type="text/css">
	.st0{fill-rule:evenodd;clip-rule:evenodd;fill:#2AACE2;}
	.st1{fill-rule:evenodd;clip-rule:evenodd;fill:#3FB4E5;}
	.st2{fill-rule:evenodd;clip-rule:evenodd;fill:#4CB9E7;}
	.st3{fill-rule:evenodd;clip-rule:evenodd;fill:#58BEE9;}
	.st4{fill-rule:evenodd;clip-rule:evenodd;fill:#65C3EB;}
	.st5{fill-rule:evenodd;clip-rule:evenodd;fill:#72C8EC;}
	.st6{fill-rule:evenodd;clip-rule:evenodd;fill:#7FCDEE;}
	.st7{fill-rule:evenodd;clip-rule:evenodd;fill:#8CD2F0;}
	.st8{fill-rule:evenodd;clip-rule:evenodd;fill:#98D7F1;}
	.st9{fill-rule:evenodd;clip-rule:evenodd;fill:#A5DCF3;}
	.st10{fill-rule:evenodd;clip-rule:evenodd;fill:#B2E1F5;}
	.st11{fill-rule:evenodd;clip-rule:evenodd;fill:#BFE6F6;}
	.st12{fill-rule:evenodd;clip-rule:evenodd;fill:#E31837;}
</style>
<path class="st0" d="M572.5,381.3L572.5,381.3h-8.8c-2.1,0-3.1,1.2-3.1,3.6c0,2.3,1.1,3.5,3.1,3.5h8.8h0.1h25.1
	c2.1,0,3.2-1.2,3.2-3.5c0-2.3-1.1-3.6-3.2-3.6H572.5L572.5,381.3z"/>
<path class="st1" d="M524.7,381.3L524.7,381.3h-8.4c-2,0-3.1,1.2-3.1,3.6c0,2.3,1.1,3.5,3.1,3.5h8.4h0.1h23.9c2.1,0,3.1-1.2,3.1-3.5
	c0-2.3-1-3.6-3.1-3.6H524.7L524.7,381.3z"/>
<path class="st2" d="M475.5,381.3L475.5,381.3h-8.4c-2.1,0-3,1.2-3,3.6c0,2.3,0.9,3.5,3,3.5h8.4h0.1h24c2.1,0,3.1-1.2,3.1-3.5
	c0-2.3-1-3.6-3.1-3.6H475.5L475.5,381.3z"/>
<path class="st3" d="M424.7,381.3L424.7,381.3h-8.4c-2.1,0-3.1,1.2-3.1,3.6c0,2.3,1,3.5,3.1,3.5h8.4h24c2.1,0,3.1-1.2,3.1-3.5
	c0-2.3-1-3.6-3.1-3.6H424.7z"/>
<path class="st4" d="M375.6,381.3L375.6,381.3h-8.4c-2.1,0-3.1,1.2-3.1,3.6c0,2.3,1,3.5,3.1,3.5h8.4h24c2.1,0,3.1-1.2,3.1-3.5
	c0-2.3-1-3.6-3.1-3.6H375.6z"/>
<path class="st5" d="M327,381.3L327,381.3h-8.8c-2.1,0-3.2,1.2-3.2,3.6c0,2.3,1.1,3.5,3.2,3.5h8.8h25.1c2.1,0,3.2-1.2,3.2-3.5
	c0-2.3-1.1-3.6-3.2-3.6H327z"/>
<path class="st6" d="M277.3,381.3L277.3,381.3h-8.4c-2.1,0-3.1,1.2-3.1,3.6c0,2.3,1,3.5,3.1,3.5h8.4h0.1h23.9c2.1,0,3.1-1.2,3.1-3.5
	c0-2.3-0.9-3.6-3.1-3.6h-23.9H277.3z"/>
<path class="st7" d="M228.2,381.3L228.2,381.3h-8.4c-2.1,0-3.1,1.2-3.1,3.6c0,2.3,1,3.5,3.1,3.5h8.4h0.1h24c2,0,3-1.2,3-3.5
	c0-2.3-1-3.6-3-3.6h-24H228.2z"/>
<path class="st8" d="M179.1,381.3L179.1,381.3h-8.4c-2.1,0-3.1,1.2-3.1,3.6c0,2.3,1,3.5,3.1,3.5h8.4h0.1h23.9c2.1,0,3.1-1.2,3.1-3.5
	c0-2.3-1-3.6-3.1-3.6h-23.9H179.1z"/>
<path class="st9" d="M129.9,381.3L129.9,381.3h-8.3c-2.1,0-3.1,1.2-3.1,3.6c0,2.3,1,3.5,3.1,3.5h8.3h0.1h24c2.1,0,3.1-1.2,3.1-3.5
	c0-2.3-1-3.6-3.1-3.6H129.9L129.9,381.3z"/>
<path class="st10" d="M80.8,381.3L80.8,381.3h-8.4c-2.1,0-3.1,1.2-3.1,3.6c0,2.3,1,3.5,3.1,3.5h8.4h0.1h23.9c2.1,0,3.1-1.2,3.1-3.5
	c0-2.3-1-3.6-3.1-3.6H80.8L80.8,381.3z"/>
<path class="st11" d="M31.6,381.3L31.6,381.3h-8.4c-2.1,0-3,1.2-3,3.6c0,2.3,0.9,3.5,3,3.5h8.4h0.1h24c2.1,0,3.1-1.2,3.1-3.5
	c0-2.3-1-3.6-3.1-3.6H31.6L31.6,381.3z"/>
<path class="st12" d="M20.2,279.7L20.2,279.7h9.1v12.5c3.1-4.6,6.4-7.9,9.7-10.1c4.6-2.8,9.4-4.3,14.4-4.3c3.4,0,6.6,0.7,9.8,2
	c3,1.3,5.6,3.2,7.5,5.5c1.9,2.2,3.6,5.5,5,9.7c3-5.6,6.8-9.9,11.3-12.9c4.6-2.9,9.4-4.3,14.6-4.3c4.9,0,9.2,1.2,12.9,3.8
	c3.7,2.5,6.4,6,8.3,10.5c1.8,4.4,2.7,11.2,2.7,20.1v39.3h-9.2v-39.3c0-7.7-0.6-13-1.6-15.9c-1.1-2.9-2.9-5.2-5.6-7
	c-2.6-1.7-5.7-2.6-9.3-2.6c-4.4,0-8.3,1.4-12,4c-3.6,2.6-6.3,6.2-8,10.5c-1.6,4.5-2.5,11.8-2.5,22.1v28.1h-9.1v-36.8
	c0-8.7-0.5-14.6-1.5-17.7c-1.1-3.1-2.9-5.6-5.6-7.4c-2.7-1.8-5.8-2.8-9.4-2.8c-4.2,0-8.1,1.3-11.8,3.9c-3.6,2.5-6.3,6-8.1,10.4
	c-1.7,4.4-2.6,11-2.6,20v30.5h-9.1V279.7z"/>
<path class="st12" d="M177.3,277.8L177.3,277.8c10.6,0,19.4,4.1,26.4,12c6.4,7.3,9.6,15.9,9.6,26c0,10-3.3,18.8-10.1,26.2
	c-6.7,7.5-15.3,11.3-25.8,11.3c-10.6,0-19.2-3.8-25.9-11.3c-6.8-7.4-10.1-16.2-10.1-26.2c0-10,3.2-18.6,9.6-25.9
	C157.8,281.9,166.6,277.8,177.3,277.8z M177.3,286.9L177.3,286.9c-7.4,0-13.7,2.8-19,8.5c-5.3,5.6-8,12.5-8,20.6
	c0,5.1,1.2,9.9,3.6,14.5c2.4,4.4,5.7,7.9,9.8,10.3c4.1,2.4,8.5,3.7,13.5,3.7c4.8,0,9.4-1.3,13.5-3.7c4.2-2.4,7.4-5.9,9.8-10.3
	c2.4-4.6,3.6-9.4,3.6-14.5c0-8.1-2.7-15-8-20.6C190.9,289.7,184.6,286.9,177.3,286.9z"/>
<path class="st12" d="M300.9,253.3L300.9,253.3v98.2h-9v-12.2c-3.8,4.7-8.1,8.1-12.8,10.5c-4.8,2.3-10,3.5-15.6,3.5
	c-10,0-18.6-3.6-25.6-11c-7.1-7.3-10.7-16.1-10.7-26.6c0-10.1,3.6-18.9,10.8-26.2c7.1-7.3,15.7-10.9,25.8-10.9
	c5.8,0,11.1,1.2,15.7,3.7c4.8,2.5,8.9,6.2,12.4,11.2v-40.3H300.9z M264.6,287.4L264.6,287.4c-5.2,0-9.8,1.3-14.1,3.7
	c-4.3,2.6-7.6,6-10.2,10.6c-2.5,4.5-3.8,9.3-3.8,14.2c0,5.1,1.3,9.8,3.8,14.3c2.6,4.6,6,8.1,10.3,10.7c4.4,2.5,9,3.8,13.9,3.8
	c5,0,9.7-1.3,14.2-3.8c4.4-2.5,7.8-5.9,10.3-10.2c2.4-4.3,3.5-9.2,3.5-14.5c0-8.2-2.7-15.1-8.1-20.5
	C279.1,290.2,272.4,287.4,264.6,287.4z"/>
<path class="st12" d="M380.5,327.6L380.5,327.6l7.5,4.2c-2.4,4.9-5.4,9-8.6,12.1c-3.3,3.1-7,5.4-11,7.1c-4,1.5-8.6,2.4-13.8,2.4
	c-11.4,0-20.3-3.9-26.7-11.5c-6.4-7.7-9.6-16.3-9.6-26c0-9.2,2.6-17.3,8.1-24.3c7-9.1,16.2-13.6,27.7-13.6
	c11.8,0,21.3,4.6,28.5,13.9c5.1,6.6,7.6,14.7,7.7,24.5h-62.7c0.2,8.3,2.7,15.2,7.8,20.5c5,5.3,11.2,8,18.5,8c3.6,0,6.9-0.7,10.3-1.9
	c3.4-1.3,6.2-3,8.5-5C375.3,335.7,377.8,332.3,380.5,327.6z M380.5,308.2L380.5,308.2c-1.2-4.9-3-8.8-5.2-11.8
	c-2.3-2.9-5.3-5.3-9.1-7c-3.8-1.8-7.7-2.7-11.8-2.7c-6.9,0-12.7,2.2-17.7,6.8c-3.6,3.3-6.3,8.2-8.2,14.8H380.5z"/>
<path class="st12" d="M402.7,279.7L402.7,279.7h9.5v10.5c2.8-4.1,5.9-7.2,9-9.3c3.2-2,6.5-3.1,9.9-3.1c2.7,0,5.4,0.9,8.4,2.4
	l-4.9,7.8c-2-0.9-3.6-1.3-4.9-1.3c-3.1,0-6.2,1.3-9,3.8c-3,2.5-5.1,6.5-6.7,11.8c-1.2,4.1-1.8,12.4-1.8,24.8v24.3h-9.5V279.7z"/>
<path class="st12" d="M450,279.7L450,279.7h9v12.9c3.6-4.9,7.7-8.6,12.1-11c4.4-2.4,9.2-3.7,14.3-3.7c5.3,0,10,1.4,14.1,4.1
	c4.1,2.8,7.1,6.5,9,11c2,4.6,2.9,11.8,2.9,21.7v36.9h-9v-34.2c0-8.3-0.4-13.8-1.1-16.6c-1-4.7-3-8.3-6.1-10.7
	c-2.9-2.3-6.8-3.6-11.7-3.6c-5.4,0-10.4,1.8-14.7,5.5c-4.4,3.8-7.2,8.3-8.5,13.7c-0.9,3.6-1.3,10.2-1.3,19.5v26.4h-9V279.7z"/>
<path class="st12" d="M599.1,279.7L599.1,279.7v71.8h-8.7v-12.3c-3.7,4.7-7.9,8.2-12.5,10.6c-4.7,2.3-9.8,3.6-15.3,3.6
	c-9.8,0-18.2-3.7-25-11.1c-6.9-7.3-10.4-16.2-10.4-26.8c0-10.2,3.5-19.1,10.5-26.5c7-7.3,15.4-11,25.2-11c5.7,0,10.8,1.2,15.4,3.8
	c4.6,2.5,8.6,6.3,12.1,11.3v-13.2H599.1z M563.7,286.7L563.7,286.7c-4.9,0-9.5,1.3-13.8,3.8c-4.2,2.6-7.4,6.1-10,10.7
	c-2.4,4.5-3.7,9.4-3.7,14.4c0,5.1,1.3,10,3.7,14.5c2.5,4.6,5.9,8.2,10.1,10.8c4.3,2.5,8.7,3.9,13.6,3.9c4.8,0,9.5-1.3,13.9-3.9
	c4.3-2.5,7.6-6,10.1-10.3c2.3-4.3,3.4-9.3,3.4-14.7c0-8.3-2.6-15.3-7.8-20.8C577.8,289.5,571.3,286.7,563.7,286.7z"/>
<path class="st12" d="M614,279.6L614,279.6c1,0,2.1,0.2,3,0.6c1.1,0.5,1.8,1.4,2.3,2.3c0.6,1,0.8,2,0.8,3.2c0,1.1-0.2,2.1-0.7,3.1
	c-0.6,0.9-1.4,1.8-2.3,2.3c-1.1,0.5-2,0.7-3.1,0.7c-1.1,0-2.1-0.2-3-0.7c-0.9-0.5-1.7-1.4-2.3-2.3c-0.5-0.9-0.7-2-0.7-3.1
	c0-1.2,0.2-2.2,0.7-3.2c0.6-0.9,1.4-1.8,2.3-2.3C612,279.8,613.1,279.6,614,279.6z M614,280.4L614,280.4c-0.9,0-1.7,0.2-2.5,0.7
	c-0.9,0.4-1.5,1.1-1.9,1.9c-0.5,0.9-0.7,1.7-0.7,2.7c0,0.9,0.2,1.7,0.7,2.5c0.4,0.8,1,1.5,1.9,1.9c0.8,0.5,1.7,0.7,2.5,0.7
	c0.9,0,1.8-0.2,2.6-0.7c0.9-0.4,1.5-1.1,1.9-1.9c0.4-0.9,0.7-1.7,0.7-2.5c0-0.9-0.3-1.8-0.7-2.7c-0.4-0.8-1.1-1.5-1.9-1.9
	C615.8,280.6,615,280.4,614,280.4z M611.4,289.1L611.4,289.1v-6.7h2.2c0.9,0,1.4,0,1.8,0.1c0.3,0.2,0.6,0.4,0.8,0.7
	c0.2,0.3,0.3,0.6,0.3,0.9c0,0.5-0.2,1-0.5,1.3c-0.4,0.3-0.9,0.5-1.5,0.6c0.3,0.1,0.4,0.2,0.6,0.3c0.2,0.3,0.5,0.7,0.9,1.4l0.9,1.3
	h-1.4L615,288c-0.5-0.8-0.8-1.4-1.1-1.6c-0.2-0.1-0.5-0.2-0.8-0.2h-0.6v2.9H611.4z M612.4,285.3L612.4,285.3h1.3
	c0.6,0,1.1,0,1.3-0.2c0.3-0.2,0.4-0.4,0.4-0.7c0-0.2-0.1-0.4-0.2-0.5c-0.1-0.2-0.2-0.3-0.4-0.4c-0.2,0-0.6-0.1-1.2-0.1h-1.1V285.3z"
	/>
</svg>
