<?xml version="1.0" encoding="UTF-8" standalone="no"?>
<svg
   xmlns:dc="http://purl.org/dc/elements/1.1/"
   xmlns:cc="http://creativecommons.org/ns#"
   xmlns:rdf="http://www.w3.org/1999/02/22-rdf-syntax-ns#"
   xmlns:svg="http://www.w3.org/2000/svg"
   xmlns="http://www.w3.org/2000/svg"
   xmlns:sodipodi="http://sodipodi.sourceforge.net/DTD/sodipodi-0.dtd"
   xmlns:inkscape="http://www.inkscape.org/namespaces/inkscape"
   version="1.1"
   id="svg2"
   xml:space="preserve"
   width="257.01334"
   height="257.01334"
   viewBox="0 0 257.01334 257.01334"
   sodipodi:docname="Pfizer.eps"><metadata
     id="metadata8"><rdf:RDF><cc:Work
         rdf:about=""><dc:format>image/svg+xml</dc:format><dc:type
           rdf:resource="http://purl.org/dc/dcmitype/StillImage" /></cc:Work></rdf:RDF></metadata><defs
     id="defs6" /><sodipodi:namedview
     pagecolor="#ffffff"
     bordercolor="#666666"
     borderopacity="1"
     objecttolerance="10"
     gridtolerance="10"
     guidetolerance="10"
     inkscape:pageopacity="0"
     inkscape:pageshadow="2"
     inkscape:window-width="640"
     inkscape:window-height="480"
     id="namedview4" /><g
     id="g10"
     inkscape:groupmode="layer"
     inkscape:label="ink_ext_XXXXXX"
     transform="matrix(1.3333333,0,0,-1.3333333,0,257.01333)"><g
       id="g12"
       transform="scale(0.1)"><path
         d="M 0,1927.56 H 1927.56 V 0 H 0 v 1927.56"
         style="fill:#ffffff;fill-opacity:1;fill-rule:evenodd;stroke:none"
         id="path14" /><path
         d="m 963.781,1508.11 c -516.617,0 -935.4333,-243.71 -935.4333,-544.329 0,-188.968 165.4843,-355.445 416.7183,-453.047 v 0 L 639.203,1190.7 v 0 c 18.668,64.63 86.168,199.63 232.66,205.37 40.215,2.88 120.676,-25.85 120.657,-104.84 0,-30.28 -26.372,-54.84 -58.903,-54.84 -32.527,0 -58.898,24.56 -58.898,54.84 0,30.29 26.371,54.84 58.898,54.84 -10.051,12.66 -40.211,29.9 -61.754,29.9 -21.543,0 -71.808,-8.62 -103.406,-116.33 v 0 L 718.191,1087.29 H 906.332 L 825.906,802.926 H 726.09 l 71.094,249.894 H 708.855 L 544.461,477.07 v 0 c 126.121,-36.867 268.559,-57.621 419.32,-57.621 516.619,0 935.429,243.707 935.429,544.332 0,300.619 -418.81,544.329 -935.429,544.329 z M 559.461,1061.68 C 526.43,936.73 412.969,938.168 375.629,938.168 v 0 h -73.25 l -40.215,-135 H 154.453 l 110.586,387.772 h -54.574 l 8.617,28.72 h 228.352 v 0 c 126.386,0 127.824,-90.48 112.027,-157.98 z M 1117.61,802.832 H 883.512 l 166.598,249.898 h -96.223 l 10.051,34.47 h 235.542 l -166.6,-249.899 h 94.78 z m 376.35,135.023 h -199.62 v 0 c -14.37,-45.96 -22.98,-104.843 15.79,-106.281 38.78,-1.437 60.32,37.34 73.25,76.117 v 0 h 97.66 v 0 C 1449.45,802.852 1360.4,792.797 1304.39,795.672 c -119.21,7.18 -135,81.859 -109.15,162.289 33.03,106.279 103.4,143.619 189.58,143.619 124.94,-2.87 124.94,-106.279 109.14,-163.725 z m 292.62,52.45 c -29.72,0 -56.01,24.385 -53.82,58.855 -20.79,-4.31 -52.46,-46.68 -58.2,-68.222 v 0 l -51.7,-178.086 h -109.15 l 71.81,249.898 h -43.09 l 10.05,34.47 h 152.24 l -12.92,-45.96 v 0 c 31.59,41.65 76.11,52.42 94.78,53.1 29.73,0 53.83,-20.5 53.83,-50.23 0,-29.73 -24.1,-53.825 -53.83,-53.825 z m -482.12,-23.379 c 10.05,31.597 24.42,103.404 74.68,103.404 50.27,0 24.42,-76.115 17.24,-103.404 v 0 z M 375.746,1191.28 h 44.524 v 0 c 34.468,-1.44 48.832,-33.03 30.16,-114.9 -18.672,-81.86 -61.758,-109.15 -94.789,-109.15 v 0 h -44.52 l 64.625,224.05 v 0"
         style="fill:#231f20;fill-opacity:1;fill-rule:evenodd;stroke:none"
         id="path16" /></g></g></svg>
