<?xml version="1.0" encoding="UTF-8" standalone="no"?>
<svg
   xmlns:dc="http://purl.org/dc/elements/1.1/"
   xmlns:cc="http://creativecommons.org/ns#"
   xmlns:rdf="http://www.w3.org/1999/02/22-rdf-syntax-ns#"
   xmlns:svg="http://www.w3.org/2000/svg"
   xmlns="http://www.w3.org/2000/svg"
   xmlns:sodipodi="http://sodipodi.sourceforge.net/DTD/sodipodi-0.dtd"
   xmlns:inkscape="http://www.inkscape.org/namespaces/inkscape"
   version="1.1"
   id="svg2"
   xml:space="preserve"
   width="1044.4"
   height="175.66667"
   viewBox="0 0 1044.4 175.66667"
   sodipodi:docname="sinovac-seeklogo.com.eps"><metadata
     id="metadata8"><rdf:RDF><cc:Work
         rdf:about=""><dc:format>image/svg+xml</dc:format><dc:type
           rdf:resource="http://purl.org/dc/dcmitype/StillImage" /></cc:Work></rdf:RDF></metadata><defs
     id="defs6" /><sodipodi:namedview
     pagecolor="#ffffff"
     bordercolor="#666666"
     borderopacity="1"
     objecttolerance="10"
     gridtolerance="10"
     guidetolerance="10"
     inkscape:pageopacity="0"
     inkscape:pageshadow="2"
     inkscape:window-width="640"
     inkscape:window-height="480"
     id="namedview4" /><g
     id="g10"
     inkscape:groupmode="layer"
     inkscape:label="ink_ext_XXXXXX"
     transform="matrix(1.3333333,0,0,-1.3333333,0,175.66667)"><g
       id="g12"
       transform="scale(0.1)"><path
         d="M 1177.37,1285.49 V 32.0313 h 320.37 V 1285.49 h -320.37"
         style="fill:#1c1312;fill-opacity:1;fill-rule:nonzero;stroke:none"
         id="path14" /><path
         d="m 3992.6,656.77 c 0,132.152 -28.04,236.265 -84.11,312.343 -56.03,76.087 -136.14,116.137 -236.27,116.137 -104.11,0 -180.19,-40.05 -236.26,-116.137 -56.07,-76.078 -84.07,-180.191 -84.07,-312.343 0,-132.153 28,-232.274 84.07,-312.391 56.07,-76.078 136.14,-116.09 236.26,-116.09 100.13,0 180.24,40.012 236.27,116.09 56.07,80.117 84.11,184.23 84.11,312.391 m 304.36,0 c 0,-204.239 -56.03,-364.43 -164.18,-480.559 C 4020.64,60.0703 3868.48,4 3672.22,4 c -196.2,0 -352.4,56.0703 -460.51,172.211 -112.14,116.129 -164.18,276.32 -164.18,480.559 0,208.23 56.03,368.42 164.18,484.55 108.11,116.14 264.31,172.22 464.55,172.22 200.2,0 352.36,-56.08 464.55,-172.22 104.07,-112.14 156.15,-276.32 156.15,-484.55"
         style="fill:#1c1312;fill-opacity:1;fill-rule:nonzero;stroke:none"
         id="path16" /><path
         d="M 5286.13,1285.49 H 5606.5 L 5177.98,32.0313 H 4805.57 L 4377.08,1285.49 h 320.33 l 292.34,-901.06 296.38,901.06"
         style="fill:#de1f25;fill-opacity:1;fill-rule:nonzero;stroke:none"
         id="path18" /><path
         d="M 28.0352,52.0508 V 300.379 C 168.219,256.281 292.34,236.281 400.492,236.281 c 152.156,0 224.242,40.047 224.242,120.125 0,28.035 -12.019,56.071 -32.027,76.078 -24.043,20.008 -80.117,52.082 -172.211,88.145 C 256.316,588.68 148.164,648.742 96.1289,696.785 32.0273,760.891 0,840.961 0,937.09 c 0,124.12 48.0859,220.25 144.172,284.31 92.094,64.1 216.262,96.13 368.418,96.13 84.109,0 220.254,-12.02 372.457,-44.05 v -220.25 c -120.176,32.03 -236.27,52.03 -336.391,52.03 -140.179,0 -212.265,-40.05 -212.265,-116.088 0,-28.082 16.011,-52.082 44.047,-72.086 24.046,-16.063 88.101,-48.09 196.253,-96.133 152.161,-68.094 256.274,-128.156 308.356,-176.199 60.062,-60.066 92.09,-136.191 92.09,-232.277 0,-136.149 -60.063,-240.258 -176.199,-312.348 C 704.805,40.0195 580.684,12.0313 428.48,12.0313 288.348,8 160.188,20.0195 28.0352,52.0508"
         style="fill:#1c1312;fill-opacity:1;fill-rule:nonzero;stroke:none"
         id="path20" /><path
         d="M 1738.01,32.0313 V 1285.5 h 400.45 L 2583,448.539 V 1285.5 h 248.29 V 32.0313 H 2454.84 L 1986.3,885.051 V 32.0313 h -248.29"
         style="fill:#1c1312;fill-opacity:1;fill-rule:nonzero;stroke:none"
         id="path22" /><path
         d="M 5818.72,32.0313 H 5498.35 L 5926.87,1285.5 h 372.41 L 6727.76,32.0313 H 6407.43 L 6111.06,933.094 5818.72,32.0313"
         style="fill:#de1f25;fill-opacity:1;fill-rule:nonzero;stroke:none"
         id="path24" /><path
         d="m 7821.03,276.32 c -96.09,-28.031 -244.3,-44.05 -300.37,-44.05 -132.11,0 -236.27,40.062 -312.35,116.136 -80.07,76.082 -116.13,180.196 -116.13,308.356 0,128.156 40.05,228.281 116.13,308.351 76.08,80.117 176.21,120.127 304.36,120.127 52.08,0 172.21,-7.98 312.39,-56.07 v 228.28 c -32.07,12.02 -76.12,24.05 -124.16,32.03 -60.07,12.02 -128.16,20.05 -204.24,20.05 -216.26,0 -388.42,-60.06 -516.58,-180.24 -128.16,-120.13 -192.22,-280.313 -192.22,-484.552 0,-200.246 64.06,-360.386 192.22,-472.527 C 7108.24,56.0703 7280.4,0 7504.64,0 c 68.1,0 132.2,3.98828 192.22,16.0117 48.09,8.0274 92.14,16.0196 136.19,28.0391 V 276.32 h -12.02"
         style="fill:#de1f25;fill-opacity:1;fill-rule:nonzero;stroke:none"
         id="path26" /></g></g></svg>
